# xmcd
#
# Track frame offsets: 
#        150
#        18347
#        36477
#        59897
#        78127
#        97480
#        113272
#        127037
#        142900
#        154990
#        173367
#        192330
#        212532
#        229542
#        246365
#        266432
#        280155
#        284165
#        308070
#        310180
#
# Disc length: 4439 seconds
#
# Revision: 3
# Processed by: cddbd v1.5.2PL0 Copyright (c) Steve Scherf et al.
# Submitted via: ExactAudioCopyFreeDBPlugin 1.0
#
DISCID=1f115514
DTITLE=Krayzie Bone - Thug On Da Line
DYEAR=2001
DGENRE=Rap
TTITLE0=Ya'll Don't Know Me
TTITLE1=Ride The Thug Line ft. The Gunslangers
TTITLE2=Can't Hustle 4 Ever ft. Lareece, Young Dre
TTITLE3=Talk To Myself ft. Tiffany
TTITLE4=A Thugga Level ft. Boss, Lareece
TTITLE5=Da Thugs
TTITLE6=If They Only Knew ft. Lareece
TTITLE7=I Don't Give a Fuck
TTITLE8=Time After Time
TTITLE9=Ride If You Like ft. Asu, K-Mont, Lareece
TTITLE10=If You A Thug ft. Asu, K-Mont, Lareece
TTITLE11=Hard Time Hustlin' ft. Sade
TTITLE12=Gemini
TTITLE13=I Don't Know What
TTITLE14=Rollin' Up Some Mo' ft. Asu, Boss, K-Mont, Keef G, Lareece
TTITLE15=Everybody Wanna Be Thugs
TTITLE16=Bloody Murder (Skit)
TTITLE17=Kneight Riduz Wuz Here ft. Knieght Rieduz
TTITLE18=Ready For Combat (Skit)
TTITLE19=Thug On Da Line ft. Asu, K-Mont, Lareece, Wish Bone
EXTD=
EXTT0=
EXTT1=
EXTT2=
EXTT3=
EXTT4=
EXTT5=
EXTT6=
EXTT7=
EXTT8=
EXTT9=
EXTT10=
EXTT11=
EXTT12=
EXTT13=
EXTT14=
EXTT15=
EXTT16=
EXTT17=
EXTT18=
EXTT19=
PLAYORDER=
